<?xml version="1.0" standalone="no"?>
<!DOCTYPE svg PUBLIC "-//W3C//DTD SVG 20010904//EN"
 "http://www.w3.org/TR/2001/REC-SVG-20010904/DTD/svg10.dtd">
<svg version="1.0" xmlns="http://www.w3.org/2000/svg"
 width="16.000000pt" height="16.000000pt" viewBox="0 0 16.000000 16.000000"
 preserveAspectRatio="xMidYMid meet">

<g transform="translate(0.000000,16.000000) scale(0.100000,-0.100000)"
fill="#000000" stroke="none">
<path d="M0 80 l0 -80 80 0 80 0 0 80 0 80 -80 0 -80 0 0 -80z m57 30 l2 -25
-8 25 -9 25 -2 -25 -2 -25 -8 25 -8 25 -2 -25 c-1 -14 -4 -19 -7 -12 -8 21 6
44 24 40 11 -2 19 -13 20 -28z m39 18 c4 -6 3 -8 -4 -4 -6 3 -12 -3 -15 -16
-4 -20 -4 -19 -6 5 -1 28 12 36 25 15z m34 1 c0 8 2 12 5 10 7 -8 -6 -49 -16
-49 -5 0 -9 12 -9 28 0 21 2 24 10 12 8 -12 10 -12 10 -1z m-27 -76 c-18 -2
-48 -2 -66 0 -17 2 -3 4 33 4 36 0 50 -2 33 -4z"/>
</g>
</svg>
